<?xml version="1.0" encoding="UTF-8" standalone="no"?>
<!-- Created with Inkscape (http://www.inkscape.org/) -->

<svg
   xmlns:dc="http://purl.org/dc/elements/1.1/"
   xmlns:cc="http://creativecommons.org/ns#"
   xmlns:rdf="http://www.w3.org/1999/02/22-rdf-syntax-ns#"
   xmlns:svg="http://www.w3.org/2000/svg"
   xmlns="http://www.w3.org/2000/svg"
   version="1.1"
   width="421.60919"
   height="451.03656"
   id="svg2">
  <metadata
     id="metadata8">
    <rdf:RDF>
      <cc:Work
         rdf:about="">
        <dc:format>image/svg+xml</dc:format>
        <dc:type
           rdf:resource="http://purl.org/dc/dcmitype/StillImage" />
        <dc:title></dc:title>
      </cc:Work>
    </rdf:RDF>
  </metadata>
  <defs
     id="defs6" />
  <path
     d="m 120.94039,108.51556 c 2.49759,-20.824147 6.47752,-59.647544 33.55788,-68.848524 26.61769,-9.043783 58.66421,-24.848778 87.71316,-33.014961 46.51043,-13.074919 63.6744,54.570161 60.83407,93.256888 41.01495,20.772457 121.50045,86.187237 112.92999,118.172607 -2.57975,9.62778 -70.3853,31.62437 -70.3853,31.62437 0,0 65.96772,140.94185 51.50052,164.15842 -0.5613,0.17755 -84.08513,32.10487 -85.08378,32.14895 -18.80701,0.83013 -110.78479,-20.83523 -110.78479,-20.83523 l -14.06981,-36.22718 -62.65128,23.85281 c 0,0 -101.585306,-16.49033 -110.662215,-25.10229 C 2.100998,362.70255 54.750152,276.8739 82.428197,232.13793 48.797225,215.45856 5,198.88882 5,184.05466 5,151.89638 76.098587,121.06522 120.94039,108.51556 z"
     id="path3760"
     style="fill:#000000;fill-opacity:1;stroke:none" />
</svg>
