<?xml version="1.0" encoding="UTF-8" standalone="no"?>
<!-- Created with Inkscape (http://www.inkscape.org/) -->

<svg
   xmlns:dc="http://purl.org/dc/elements/1.1/"
   xmlns:cc="http://creativecommons.org/ns#"
   xmlns:rdf="http://www.w3.org/1999/02/22-rdf-syntax-ns#"
   xmlns:svg="http://www.w3.org/2000/svg"
   xmlns="http://www.w3.org/2000/svg"
   xmlns:xlink="http://www.w3.org/1999/xlink"
   version="1.1"
   width="441.87122"
   height="341.9592"
   id="svg2">
  <metadata
     id="metadata8">
    <rdf:RDF>
      <cc:Work
         rdf:about="">
        <dc:format>image/svg+xml</dc:format>
        <dc:type
           rdf:resource="http://purl.org/dc/dcmitype/StillImage" />
        <dc:title></dc:title>
      </cc:Work>
    </rdf:RDF>
  </metadata>
  <defs
     id="defs6">
    <linearGradient
       id="linearGradient3938">
      <stop
         id="stop3940"
         style="stop-color:#000000;stop-opacity:0.50196081"
         offset="0" />
      <stop
         id="stop3942"
         style="stop-color:#000000;stop-opacity:0.50196081"
         offset="0.34368801" />
      <stop
         id="stop3944"
         style="stop-color:#000000;stop-opacity:1"
         offset="0.58549738" />
      <stop
         id="stop3946"
         style="stop-color:#000000;stop-opacity:0.50196081"
         offset="0.59239608" />
      <stop
         id="stop3948"
         style="stop-color:#000000;stop-opacity:0.50196081"
         offset="0.95168996" />
      <stop
         id="stop3950"
         style="stop-color:#000000;stop-opacity:1"
         offset="1" />
    </linearGradient>
    <linearGradient
       id="linearGradient3915">
      <stop
         id="stop3930"
         style="stop-color:#000000;stop-opacity:0.50196081"
         offset="0" />
      <stop
         id="stop3932"
         style="stop-color:#000000;stop-opacity:0.54901963"
         offset="0.80874175" />
      <stop
         id="stop3934"
         style="stop-color:#000000;stop-opacity:1"
         offset="1" />
    </linearGradient>
    <linearGradient
       x1="879.75"
       y1="734.98438"
       x2="1223.8706"
       y2="734.98438"
       id="linearGradient3892"
       xlink:href="#linearGradient3938"
       gradientUnits="userSpaceOnUse" />
    <linearGradient
       x1="1206.7461"
       y1="734.98438"
       x2="1311.625"
       y2="734.98438"
       id="linearGradient3936"
       xlink:href="#linearGradient3915"
       gradientUnits="userSpaceOnUse" />
  </defs>
  <g
     transform="translate(-874.75009,-562.77588)"
     id="layer6"
     style="opacity:0.2;display:inline">
    <path
       d="m 1211.5938,571 c 36.4141,8.70204 24.129,32.54159 11.6562,42.5 11.8989,1.36746 64.3837,26.0474 82.3438,44.25 -15.154,-16.10515 -54.5551,-34.67114 -65.9063,-39.53125 0,-17.35924 8.7458,-38.83829 -28.0937,-47.21875 z M 1208,667 c 0.6277,13.79305 8.48,36.88206 8.5312,55.6875 l 2.5313,3.4375 1.4063,92.96875 2.3124,4.4375 c -0.053,-0.9453 -0.1163,-1.90427 -0.1562,-2.78125 19.8885,3.22041 84.365,9.36795 89,3.5 0,-3.16014 -0.031,-154.33993 -0.031,-155.25 -0.1384,0.89025 -0.4881,1.73328 -1.0938,2.5 -4.6349,5.86794 -82.6114,-1.27959 -102.5,-4.5 z m 6.8438,68.84375 c -0.1591,0.51977 -0.3153,1.02863 -0.5,1.53125 0.1838,-0.50084 0.3416,-1.01337 0.5,-1.53125 z m -2.6563,6.03125 c -0.1657,0.26874 -0.3233,0.52026 -0.5,0.78125 0.1724,-0.25509 0.3382,-0.51878 0.5,-0.78125 z m -0.75,1.09375 c -0.1706,0.24217 -0.3506,0.48369 -0.5313,0.71875 0.1817,-0.23669 0.3598,-0.47486 0.5313,-0.71875 z m 12.5937,111.375 c -0.013,1.24404 -0.022,2.50429 -0.062,3.75 0.041,-1.25134 0.049,-2.50032 0.062,-3.75 z M 1218.8125,887 c -0.2678,0.643 -0.5502,1.28625 -0.8437,1.90625 0.2947,-0.62274 0.5749,-1.26026 0.8437,-1.90625 z"
       id="path3895"
       style="fill:url(#linearGradient3936);fill-opacity:1;stroke:none;display:inline" />
    <path
       d="m 953.03125,610.59375 c 0.0449,18.38705 0.37088,32.00209 0.375,46.4375 26.31785,-6.793 52.90715,-14.02479 67.09375,-22.28125 -19.1893,-12.14703 -61.3299,-16.93587 -67.46875,-24.15625 z M 879.75,683.8125 c 9.2e-4,6.75788 0.0937,152.6875 0.0937,152.6875 41.18,8.03365 81.72029,19.29686 122.7813,26.25 24.5233,-3.2081 76.5,-24.25 76.5,-24.25 0,0 0.5977,23.65375 3.75,35.75 23.0676,8.65443 73.3142,18.86425 127,25.5 18.3323,-15.30125 14.137,-54.35922 12.9061,-76.1875 l -2.3124,-4.46875 -1.4063,-92.96875 -2.5313,-3.4375 c 0.027,9.99231 -2.1415,18.77056 -8.7812,24.3125 -53.6858,-6.63575 -103.9324,-16.84557 -127,-25.5 -3.1523,-12.09625 -3.75,-35.75 -3.75,-35.75 0,0 -51.9767,21.0419 -76.5,24.25 -41.64315,-6.83156 -119.99525,-26.00275 -120.74995,-26.1875 z"
       id="path3878"
       style="fill:url(#linearGradient3892);fill-opacity:1;stroke:none;display:inline" />
  </g>
  <g
     transform="translate(-874.75009,-562.77588)"
     id="layer3"
     style="display:inline">
    <path
       d="m 879.5,683.75 c 0,0 79.15564,19.38544 121,26.25 24.5233,-3.2081 76.5,-24.25 76.5,-24.25 0,0 0.5977,23.65375 3.75,35.75 23.0676,8.65443 73.3142,18.86425 127,25.5 19.1357,-15.97183 1.2113,-58.87799 0.25,-80 19.8886,3.22041 97.8651,10.36794 102.5,4.5 11.9918,-15.18208 -71.8122,-56.22583 -87.25,-58 13.2941,-10.6142 26.3721,-36.9815 -19.5,-44 -51.6313,-7.89966 -73.8456,13.36435 -84.25,23 -41.7692,-1.0683 -152.89281,-2.57001 -166.5,14.5 -7.57702,9.50525 45.31304,13.70545 67.5,27.75 -33.46719,19.47755 -136.00277,33.26255 -141,49 z"
       id="path3782"
       style="fill:none;stroke:#000000;stroke-width:4;stroke-linecap:butt;stroke-linejoin:round;stroke-miterlimit:4;stroke-opacity:1;stroke-dasharray:none" />
    <path
       d="m 1002.6213,862.73506 c 24.5233,-3.2081 76.5,-24.25 76.5,-24.25 0,0 0.5977,23.65375 3.75,35.75 23.0676,8.65443 73.3142,18.86425 127,25.5 19.1357,-15.97183 13.7113,-57.87799 12.75,-79 19.8886,3.22041 84.3651,9.36795 89,3.5 0,-3.16014 -0.012,-154.34051 -0.012,-155.25058 0,-17.3252 -57.7764,-44.70979 -71.927,-50.76849 0,-18.49726 9.9401,-41.69749 -35.932,-48.71599 -51.6313,-7.89966 -73.8456,13.36435 -84.25,23 -41.7692,-1.0683 -152.89281,-2.57001 -166.5,14.5 0,20.4807 0.40984,34.77111 0.40984,50.27592 -35.11934,9.07138 -69.38746,16.9767 -73.66005,25.84918 0,5.51822 0.10376,153.35996 0.10376,153.35996 41.18,8.03365 81.70654,19.29686 122.76745,26.25 z"
       id="path3764"
       style="fill:none;stroke:#000000;stroke-width:10;stroke-linecap:butt;stroke-linejoin:round;stroke-miterlimit:4;stroke-opacity:1;stroke-dasharray:none" />
  </g>
</svg>
