<?xml version="1.0" encoding="UTF-8" standalone="no"?>
<!-- Created with Inkscape (http://www.inkscape.org/) -->

<svg
   xmlns:dc="http://purl.org/dc/elements/1.1/"
   xmlns:cc="http://creativecommons.org/ns#"
   xmlns:rdf="http://www.w3.org/1999/02/22-rdf-syntax-ns#"
   xmlns:svg="http://www.w3.org/2000/svg"
   xmlns="http://www.w3.org/2000/svg"
   xmlns:xlink="http://www.w3.org/1999/xlink"
   version="1.1"
   width="421.60919"
   height="451.03656"
   id="svg2">
  <metadata
     id="metadata8">
    <rdf:RDF>
      <cc:Work
         rdf:about="">
        <dc:format>image/svg+xml</dc:format>
        <dc:type
           rdf:resource="http://purl.org/dc/dcmitype/StillImage" />
        <dc:title></dc:title>
      </cc:Work>
    </rdf:RDF>
  </metadata>
  <defs
     id="defs6">
    <linearGradient
       id="linearGradient3929">
      <stop
         id="stop3931"
         style="stop-color:#000000;stop-opacity:0.50196081"
         offset="0" />
      <stop
         id="stop3933"
         style="stop-color:#000000;stop-opacity:1"
         offset="0.40545273" />
      <stop
         id="stop3935"
         style="stop-color:#000000;stop-opacity:0.50196081"
         offset="0.41454381" />
      <stop
         id="stop3937"
         style="stop-color:#000000;stop-opacity:1"
         offset="1" />
    </linearGradient>
    <linearGradient
       id="linearGradient3917">
      <stop
         id="stop3919"
         style="stop-color:#000000;stop-opacity:0.75294119"
         offset="0" />
      <stop
         id="stop3921"
         style="stop-color:#000000;stop-opacity:1"
         offset="1" />
    </linearGradient>
    <linearGradient
       x1="337.96545"
       y1="297.81265"
       x2="398.07605"
       y2="467.88223"
       id="linearGradient3966"
       xlink:href="#linearGradient3917"
       gradientUnits="userSpaceOnUse" />
    <linearGradient
       x1="292.29031"
       y1="37.874138"
       x2="388.95239"
       y2="284.13211"
       id="linearGradient3968"
       xlink:href="#linearGradient3929"
       gradientUnits="userSpaceOnUse" />
  </defs>
  <g
     transform="translate(-34.951533,-37.545657)"
     id="layer2"
     style="display:inline">
    <g
       id="g3939"
       style="opacity:0.2;display:inline">
      <path
         d="m 450.9375,255.625 c -0.0577,0.21527 -0.16029,0.4292 -0.28125,0.65625 0.11897,-0.22405 0.22434,-0.44387 0.28125,-0.65625 z m -30.53125,17.1875 c -3.05508,1.22964 -6.16412,2.43542 -9.21875,3.59375 3.06992,-1.16584 6.14928,-2.35627 9.21875,-3.59375 z m -9.21875,3.59375 c -3.05463,1.15833 -6.04052,2.27383 -8.90625,3.3125 2.85332,-1.03581 5.86747,-2.15848 8.90625,-3.3125 z m -17.09375,6.21875 -27.28125,6.84375 -0.1875,-0.0625 c -11.00257,8.18187 -74.0625,11.40625 -74.0625,11.40625 0,0 70.04136,156.61225 57.0625,181.8125 13.98099,-5.09557 81.89955,-31.05847 82.40625,-31.21875 14.4672,-23.21657 -51.5,-164.15625 -51.5,-164.15625 0,0 5.69404,-1.87292 13.5625,-4.625 z M 204.34375,365.5 159.4375,450.34375 222.09375,426.5 236.1875,462.71875 204.34375,365.5 z m 94.3125,110.84375 c 3.34158,0.66624 6.62995,1.29096 9.875,1.90625 -3.23013,-0.61261 -6.54941,-1.24322 -9.875,-1.90625 z m 20.75,3.90625 c 2.06963,0.36036 4.03179,0.68693 5.96875,1 -1.92358,-0.31108 -3.91455,-0.64234 -5.96875,-1 z m 27.65625,3.28125 c -0.13806,0.007 -0.25996,0.0267 -0.40625,0.0312 0.0969,-0.003 0.21921,0.004 0.3125,0 0.005,-2.4e-4 0.0838,-0.0292 0.0937,-0.0312 z"
         id="path3909"
         style="fill:url(#linearGradient3966);fill-opacity:1;stroke:none;display:inline" />
      <path
         d="m 287.53125,42.5625 c -3.27985,0.08843 -6.74137,0.603522 -10.375,1.625 -29.00555,8.153983 -60.99965,23.949588 -87.59375,33 3.36621,-1.033563 7.0975,-1.59375 11.21875,-1.59375 51.28361,0 52.95892,72.48317 54.46875,93.6875 41.01495,20.77246 121.50796,86.17088 112.9375,118.15625 -0.18271,0.68188 -0.72385,1.34511 -1.5625,1.96875 l 0.1875,0.0625 27.375,-6.875 c 19.90707,-6.96534 54.90423,-20.08021 56.75,-26.96875 C 459.50796,223.63963 379.01495,158.24121 338,137.46875 340.61843,101.80442 326.23347,41.519083 287.53125,42.5625 z"
         id="path3042"
         style="fill:url(#linearGradient3968);fill-opacity:1;stroke:none;display:inline" />
    </g>
    <g
       id="g3946">
      <path
         d="m 155.89192,146.06122 c 2.808,-23.41224 7.19614,-70.478446 44.87616,-70.478446 51.28361,0 52.98763,72.487326 54.49746,93.691656 41.01495,20.77246 121.50045,86.18724 112.92999,118.17261 -2.57975,9.62778 -75.6353,13.37437 -75.6353,13.37437 0,0 71.21772,159.19185 56.75052,182.40842 -11.13195,3.52121 -113.13708,-20.50609 -113.13708,-20.50609 l -31.81981,-97.22718 -44.90128,84.85281 c 0,0 -101.585303,-16.49033 -110.662212,-25.10229 C 37.052531,400.24821 89.701685,314.41956 117.37973,269.68359 83.748758,253.00422 39.951533,236.43448 39.951533,221.60032 c 0,-32.15828 71.098587,-62.98944 115.940387,-75.5391 z"
         id="path2990"
         style="fill:none;stroke:#000000;stroke-width:4;stroke-linecap:butt;stroke-linejoin:round;stroke-miterlimit:4;stroke-opacity:1;stroke-dasharray:none" />
      <path
         d="m 155.89192,146.06122 c 2.49759,-20.82415 6.47752,-59.647547 33.55788,-68.848527 26.61769,-9.043783 58.66421,-24.848778 87.71316,-33.014961 46.51043,-13.074919 63.6744,54.570161 60.83407,93.256888 41.01495,20.77246 121.50045,86.18724 112.92999,118.17261 -2.57975,9.62778 -70.3853,31.62437 -70.3853,31.62437 0,0 65.96772,140.94185 51.50052,164.15842 -0.5613,0.17755 -84.08513,32.10487 -85.08378,32.14895 -18.80701,0.83013 -110.78479,-20.83523 -110.78479,-20.83523 l -14.06981,-36.22718 -62.65128,23.85281 c 0,0 -101.585303,-16.49033 -110.662212,-25.10229 C 37.052531,400.24821 89.701685,314.41956 117.37973,269.68359 83.748758,253.00422 39.951533,236.43448 39.951533,221.60032 c 0,-32.15828 71.098587,-62.98944 115.940387,-75.5391 z"
         id="path3760"
         style="fill:none;stroke:#000000;stroke-width:10;stroke-linecap:butt;stroke-linejoin:round;stroke-miterlimit:4;stroke-opacity:1;stroke-dasharray:none" />
    </g>
  </g>
</svg>
