<?xml version="1.0" encoding="UTF-8" standalone="no"?>
<!-- Created with Inkscape (http://www.inkscape.org/) -->

<svg
   xmlns:dc="http://purl.org/dc/elements/1.1/"
   xmlns:cc="http://creativecommons.org/ns#"
   xmlns:rdf="http://www.w3.org/1999/02/22-rdf-syntax-ns#"
   xmlns:svg="http://www.w3.org/2000/svg"
   xmlns="http://www.w3.org/2000/svg"
   version="1.1"
   width="443.09653"
   height="341.9592"
   id="svg2">
  <metadata
     id="metadata8">
    <rdf:RDF>
      <cc:Work
         rdf:about="">
        <dc:format>image/svg+xml</dc:format>
        <dc:type
           rdf:resource="http://purl.org/dc/dcmitype/StillImage" />
        <dc:title></dc:title>
      </cc:Work>
    </rdf:RDF>
  </metadata>
  <defs
     id="defs6" />
  <g
     transform="translate(-874.65435,-562.77588)"
     id="layer3">
    <path
       d="m 879.5,683.75 c 0,0 79.15564,19.38544 121,26.25 24.5233,-3.2081 76.5,-24.25 76.5,-24.25 0,0 0.5977,23.65375 3.75,35.75 23.0676,8.65443 73.3142,18.86425 127,25.5 19.1357,-15.97183 1.2113,-58.87799 0.25,-80 19.8886,3.22041 97.8651,10.36794 102.5,4.5 11.9918,-15.18208 -71.8122,-56.22583 -87.25,-58 13.2941,-10.6142 26.3721,-36.9815 -19.5,-44 -51.6313,-7.89966 -73.8456,13.36435 -84.25,23 -41.7692,-1.0683 -152.89281,-2.57001 -166.5,14.5 -7.57702,9.50525 45.31304,13.70545 67.5,27.75 -33.46719,19.47755 -136.00277,33.26255 -141,49 z"
       id="path3782"
       style="fill:none;stroke:#000000;stroke-width:4;stroke-linecap:butt;stroke-linejoin:round;stroke-miterlimit:4;stroke-opacity:1;stroke-dasharray:none" />
    <path
       d="m 881.62132,836.48506 c 0,0 79.15564,19.38544 120.99998,26.25 24.5233,-3.2081 76.5,-24.25 76.5,-24.25 0,0 0.5977,23.65375 3.75,35.75 23.0676,8.65443 73.3142,18.86425 127,25.5 19.1357,-15.97183 13.7113,-57.87799 12.75,-79 19.8886,3.22041 85.3651,9.36795 90,3.5 0.6115,-0.77414 -1.1474,-154.35059 -1.0123,-155.25058 2.5141,-16.75015 -73.7084,-53.80078 -88.359,-55.48448 13.2941,-10.6142 26.3721,-36.9815 -19.5,-44 -51.6313,-7.89966 -73.8456,13.36435 -84.25,23 -41.7692,-1.0683 -152.89281,-2.57001 -166.5,14.5 -7.57702,9.50525 45.31304,13.70545 67.5,27.75 -33.0235,19.21933 -133.29619,32.89604 -140.75021,48.3751 -0.10015,0.20797 -0.53709,153.85844 1.87153,153.35996 z"
       id="path3764"
       style="fill:none;stroke:#000000;stroke-width:10;stroke-linecap:butt;stroke-linejoin:round;stroke-miterlimit:4;stroke-opacity:1;stroke-dasharray:none" />
  </g>
</svg>
