<?xml version="1.0" encoding="UTF-8" standalone="no"?>
<!-- Created with Inkscape (http://www.inkscape.org/) -->

<svg
   xmlns:dc="http://purl.org/dc/elements/1.1/"
   xmlns:cc="http://creativecommons.org/ns#"
   xmlns:rdf="http://www.w3.org/1999/02/22-rdf-syntax-ns#"
   xmlns:svg="http://www.w3.org/2000/svg"
   xmlns="http://www.w3.org/2000/svg"
   version="1.1"
   width="421.60919"
   height="451.03656"
   id="svg2">
  <metadata
     id="metadata8">
    <rdf:RDF>
      <cc:Work
         rdf:about="">
        <dc:format>image/svg+xml</dc:format>
        <dc:type
           rdf:resource="http://purl.org/dc/dcmitype/StillImage" />
        <dc:title></dc:title>
      </cc:Work>
    </rdf:RDF>
  </metadata>
  <defs
     id="defs6" />
  <g
     transform="translate(-34.951533,-37.545657)"
     id="layer2"
     style="display:inline">
    <path
       d="m 155.89192,146.06122 c 2.808,-23.41224 7.19614,-70.478446 44.87616,-70.478446 51.28361,0 52.98763,72.487326 54.49746,93.691656 41.01495,20.77246 121.50045,86.18724 112.92999,118.17261 -2.57975,9.62778 -75.6353,13.37437 -75.6353,13.37437 0,0 71.21772,159.19185 56.75052,182.40842 -11.13195,3.52121 -113.13708,-20.50609 -113.13708,-20.50609 l -31.81981,-97.22718 -44.90128,84.85281 c 0,0 -101.585303,-16.49033 -110.662212,-25.10229 C 37.052531,400.24821 89.701685,314.41956 117.37973,269.68359 83.748758,253.00422 39.951533,236.43448 39.951533,221.60032 c 0,-32.15828 71.098587,-62.98944 115.940387,-75.5391 z"
       id="path2990"
       style="fill:none;stroke:#000000;stroke-width:4;stroke-linecap:butt;stroke-linejoin:round;stroke-miterlimit:4;stroke-opacity:1;stroke-dasharray:none" />
    <path
       d="m 155.89192,146.06122 c 2.49759,-20.82415 6.47752,-59.647547 33.55788,-68.848527 26.61769,-9.043783 58.66421,-24.848778 87.71316,-33.014961 46.51043,-13.074919 63.6744,54.570161 60.83407,93.256888 41.01495,20.77246 121.50045,86.18724 112.92999,118.17261 -2.57975,9.62778 -70.3853,31.62437 -70.3853,31.62437 0,0 65.96772,140.94185 51.50052,164.15842 -0.5613,0.17755 -84.08513,32.10487 -85.08378,32.14895 -18.80701,0.83013 -110.78479,-20.83523 -110.78479,-20.83523 l -14.06981,-36.22718 -62.65128,23.85281 c 0,0 -101.585303,-16.49033 -110.662212,-25.10229 C 37.052531,400.24821 89.701685,314.41956 117.37973,269.68359 83.748758,253.00422 39.951533,236.43448 39.951533,221.60032 c 0,-32.15828 71.098587,-62.98944 115.940387,-75.5391 z"
       id="path3760"
       style="fill:none;stroke:#000000;stroke-width:10;stroke-linecap:butt;stroke-linejoin:round;stroke-miterlimit:4;stroke-opacity:1;stroke-dasharray:none" />
  </g>
</svg>
