<?xml version="1.0" encoding="UTF-8" standalone="no"?>
<!-- Created with Inkscape (http://www.inkscape.org/) -->

<svg
   xmlns:dc="http://purl.org/dc/elements/1.1/"
   xmlns:cc="http://creativecommons.org/ns#"
   xmlns:rdf="http://www.w3.org/1999/02/22-rdf-syntax-ns#"
   xmlns:svg="http://www.w3.org/2000/svg"
   xmlns="http://www.w3.org/2000/svg"
   version="1.1"
   width="441.87122"
   height="341.9592"
   id="svg2">
  <metadata
     id="metadata8">
    <rdf:RDF>
      <cc:Work
         rdf:about="">
        <dc:format>image/svg+xml</dc:format>
        <dc:type
           rdf:resource="http://purl.org/dc/dcmitype/StillImage" />
        <dc:title></dc:title>
      </cc:Work>
    </rdf:RDF>
  </metadata>
  <defs
     id="defs6" />
  <g
     transform="translate(-874.75009,-562.77588)"
     id="layer6"
     style="opacity:0.2;display:inline" />
  <g
     transform="translate(-874.75009,-562.77588)"
     id="layer3"
     style="display:inline">
    <path
       d="m 1002.6213,862.73506 c 24.5233,-3.2081 76.5,-24.25 76.5,-24.25 0,0 0.5977,23.65375 3.75,35.75 23.0676,8.65443 73.3142,18.86425 127,25.5 19.1357,-15.97183 13.7113,-57.87799 12.75,-79 19.8886,3.22041 84.3651,9.36795 89,3.5 0,-3.16014 -0.012,-154.34051 -0.012,-155.25058 0,-17.3252 -57.7764,-44.70979 -71.927,-50.76849 0,-18.49726 9.9401,-41.69749 -35.932,-48.71599 -51.6313,-7.89966 -73.8456,13.36435 -84.25,23 -41.7692,-1.0683 -152.89281,-2.57001 -166.5,14.5 0,20.4807 0.40984,34.77111 0.40984,50.27592 -35.11934,9.07138 -69.38746,16.9767 -73.66005,25.84918 0,5.51822 0.10376,153.35996 0.10376,153.35996 41.18,8.03365 81.70654,19.29686 122.76745,26.25 z"
       id="path3764"
       style="fill:#000000;fill-opacity:1;stroke:none" />
  </g>
</svg>
